<svg xmlns="http://www.w3.org/2000/svg" width="160" height="160" fill="none">
  <rect width="160" height="160" fill="url(#grad-bg)" opacity=".4" />
  <g opacity=".35" fill="#fbcfe8">
    <path d="M24 18l2.4 5.3L32 24l-5.6 2.7L24 32l-2.4-5.3L16 24l5.6-.7L24 18z" />
    <path d="M88 42l1.8 4.2 4.7.4L91 49l1 4.6-4-2.6-4 2.6 1-4.6-3.5-3.4 4.7-.4L88 42z" />
    <path d="M132 84l1.5 3.4 3.6.3-2.7 2.7.7 3.6-3.1-2-3.1 2 .7-3.6-2.7-2.7 3.6-.3 1.5-3.4z" />
    <circle cx="52" cy="110" r="4" />
    <circle cx="20" cy="136" r="3" />
    <circle cx="112" cy="24" r="3.5" />
    <circle cx="142" cy="58" r="4" />
  </g>
  <defs>
    <radialGradient id="grad-bg" cx="0" cy="0" r="1" gradientUnits="userSpaceOnUse" gradientTransform="matrix(0 160 -160 0 80 0)">
      <stop stop-color="#fde2f3" />
      <stop offset="1" stop-color="#fff" />
    </radialGradient>
  </defs>
</svg>
